<svg width="665" height="591" viewBox="0 0 665 591" fill="none" xmlns="http://www.w3.org/2000/svg">
<path d="M394.645 470.572C354.683 479.953 344.099 427.522 305.399 427.887C254.763 428.366 198.898 482.012 152.322 472.861C105.049 463.572 81.0884 422.317 71.3543 381.9C60.8261 338.187 64.6415 286.319 96.3118 240.303C127.61 194.827 183.544 160.724 238.907 138.45C287.963 118.713 335.258 129.351 385.032 124.143C433.152 119.109 488.367 92.3206 526.628 108.346C564.956 124.399 578.9 165.737 579.057 205.409C579.196 240.497 547.825 275.59 527.43 311.004C511.846 338.063 494.701 363.123 473.678 388.387C449.313 417.666 432.767 461.624 394.645 470.572Z" fill="#484C9A"/>
</svg>
